<svg width="350" height="138" viewBox="0 0 350 138" fill="none" xmlns="http://www.w3.org/2000/svg">
<path d="M340.43 137.453C342.337 137.768 344.138 136.478 344.453 134.57L349.587 103.492C349.902 101.584 348.611 99.7829 346.704 99.4679C344.797 99.1529 342.995 100.444 342.68 102.351L338.117 129.976L310.492 125.413C308.584 125.098 306.783 126.389 306.468 128.296C306.153 130.203 307.444 132.005 309.351 132.32L340.43 137.453ZM1 4.75737L1.22777 8.24995C40.2652 5.70408 104.131 9.05511 168.491 27.4205C232.877 45.7931 297.336 79.0668 338.155 136.038L341 134L343.845 131.962C301.749 73.2077 235.601 39.2911 170.412 20.6892C105.198 2.08011 40.5204 -1.32743 0.772228 1.26479L1 4.75737Z" fill="#121028"/>
</svg>
