<svg width="350" height="138" viewBox="0 0 350 138" fill="none" xmlns="http://www.w3.org/2000/svg">
<path d="M9.57037 137.453C7.66324 137.768 5.86179 136.478 5.54678 134.57L0.413208 103.492C0.0982056 101.584 1.38889 99.7829 3.29605 99.4679C5.20319 99.1529 7.00461 100.444 7.31964 102.351L11.8828 129.976L39.5085 125.413C41.4156 125.098 43.217 126.389 43.5321 128.296C43.8471 130.203 42.5564 132.005 40.6493 132.32L9.57037 137.453ZM349 4.75737L348.772 8.24995C309.735 5.70408 245.869 9.05511 181.509 27.4205C117.123 45.7931 52.6639 79.0668 11.8451 136.038L9 134L6.15488 131.962C48.2506 73.2077 114.399 39.2911 179.588 20.6892C244.802 2.08011 309.48 -1.32743 349.228 1.26479L349 4.75737Z" fill="#121028"/>
</svg>
