<svg width="251" height="361" viewBox="0 0 251 361" fill="none" xmlns="http://www.w3.org/2000/svg">
<path opacity="0.2" d="M250.242 305.662V360.594H7.07812V313.719L122.068 190.428C133.624 177.57 142.739 166.258 149.412 156.492C156.085 146.564 160.887 137.693 163.816 129.881C166.909 121.906 168.455 114.337 168.455 107.176C168.455 96.4336 166.665 87.2376 163.084 79.5879C159.503 71.7754 154.214 65.7533 147.215 61.5215C140.379 57.2897 131.915 55.1738 121.824 55.1738C111.082 55.1738 101.805 57.778 93.9922 62.9863C86.3424 68.1947 80.4831 75.4375 76.4141 84.7148C72.5078 93.9922 70.5547 104.49 70.5547 116.209H-0.00195312C-0.00195312 95.0501 5.04362 75.6816 15.1348 58.1035C25.2259 40.3626 39.4674 26.2839 57.8594 15.8672C76.2513 5.28776 98.0612 -0.00195312 123.289 -0.00195312C148.191 -0.00195312 169.188 4.06706 186.277 12.2051C203.53 20.1803 216.551 31.7363 225.34 46.873C234.292 61.847 238.768 79.7507 238.768 100.584C238.768 112.303 236.896 123.777 233.152 135.008C229.409 146.076 224.038 157.143 217.039 168.211C210.203 179.116 201.902 190.184 192.137 201.414C182.371 212.645 171.548 224.282 159.666 236.326L97.8984 305.662H250.242Z" fill="white"/>
</svg>
