<svg width="248" height="366" viewBox="0 0 248 366" fill="none" xmlns="http://www.w3.org/2000/svg">
<path opacity="0.2" d="M81.0527 152.342H118.65C130.695 152.342 140.623 150.307 148.436 146.238C156.248 142.007 162.026 136.147 165.77 128.66C169.676 121.01 171.629 112.14 171.629 102.049C171.629 92.9342 169.839 84.8776 166.258 77.8789C162.84 70.7174 157.55 65.1836 150.389 61.2773C143.227 57.2083 134.194 55.1738 123.289 55.1738C114.663 55.1738 106.688 56.8828 99.3633 60.3008C92.0391 63.7188 86.1797 68.5202 81.7852 74.7051C77.3906 80.89 75.1934 88.377 75.1934 97.166H4.63672C4.63672 77.6348 9.84505 60.6263 20.2617 46.1406C30.8411 31.6549 45.0013 20.3431 62.7422 12.2051C80.4831 4.06706 100.014 -0.00195312 121.336 -0.00195312C145.424 -0.00195312 166.502 3.9043 184.568 11.7168C202.635 19.3665 216.714 30.6784 226.805 45.6523C236.896 60.6263 241.941 79.181 241.941 101.316C241.941 112.547 239.337 123.452 234.129 134.031C228.921 144.448 221.434 153.888 211.668 162.352C202.065 170.652 190.346 177.326 176.512 182.371C162.677 187.254 147.133 189.695 129.881 189.695H81.0527V152.342ZM81.0527 205.809V169.432H129.881C149.249 169.432 166.258 171.629 180.906 176.023C195.555 180.418 207.843 186.766 217.771 195.066C227.7 203.204 235.187 212.889 240.232 224.119C245.278 235.187 247.801 247.475 247.801 260.984C247.801 277.586 244.627 292.397 238.279 305.418C231.932 318.276 222.98 329.181 211.424 338.133C200.031 347.085 186.684 353.921 171.385 358.641C156.085 363.198 139.402 365.477 121.336 365.477C106.362 365.477 91.6322 363.442 77.1465 359.373C62.8236 355.141 49.8027 348.875 38.084 340.574C26.528 332.111 17.2507 321.531 10.252 308.836C3.41602 295.978 -0.00195312 280.76 -0.00195312 263.182H70.5547C70.5547 272.296 72.8333 280.434 77.3906 287.596C81.9479 294.757 88.2142 300.372 96.1895 304.441C104.327 308.51 113.361 310.545 123.289 310.545C134.52 310.545 144.122 308.51 152.098 304.441C160.236 300.21 166.421 294.35 170.652 286.863C175.047 279.214 177.244 270.343 177.244 260.252C177.244 247.231 174.884 236.814 170.164 229.002C165.444 221.027 158.689 215.167 149.9 211.424C141.111 207.68 130.695 205.809 118.65 205.809H81.0527Z" fill="white"/>
</svg>
